<svg width="106" height="77" viewBox="0 0 106 77" fill="none" xmlns="http://www.w3.org/2000/svg">
<path d="M0.128269 39.2528L45.2724 6.42586L43.8368 70.482L0.128269 39.2528Z" fill="#37323E"/>
<ellipse cx="65.5" cy="38.9976" rx="40.5" ry="38" fill="#37323E"/>
<ellipse cx="66.5" cy="39.4976" rx="33.5" ry="32.5" fill="white"/>
<ellipse cx="66.5" cy="39.4976" rx="27.5" ry="26.5" fill="white"/>
<mask id="mask0_210_687" style="mask-type:alpha" maskUnits="userSpaceOnUse" x="48" y="7" width="55" height="54">
<ellipse cx="75.5" cy="34.4976" rx="27.5" ry="26.5" fill="white"/>
</mask>
<g mask="url(#mask0_210_687)">
<path d="M50.3234 31.7541C51.0415 30.2244 52.579 29.2476 54.2689 29.2476V29.2476C56.0247 29.2476 57.609 28.194 58.2882 26.5749L60.8796 20.3968C62.6605 16.1511 68.8291 16.6466 69.9094 21.1222V21.1222C69.9697 21.372 70.0501 21.6166 70.1498 21.8535L71.3361 24.671C72.6556 27.8048 76.6395 28.7539 79.2303 26.5518V26.5518C81.6797 24.4698 85.4266 25.188 86.9325 28.028L89.8328 33.4976L92.0045 37.4356C96.0474 44.7669 90.7442 53.7476 82.3721 53.7476H57.3148C49.2563 53.7476 43.933 45.3684 47.3571 38.0736L50.3234 31.7541Z" fill="#FFFB88"/>
</g>
<mask id="mask1_210_687" style="mask-type:alpha" maskUnits="userSpaceOnUse" x="39" y="12" width="55" height="54">
<ellipse cx="66.5" cy="39.4976" rx="27.5" ry="26.5" fill="white"/>
</mask>
<g mask="url(#mask1_210_687)">
<path d="M40.962 51.035C42.8354 47.0438 47.7953 45.616 51.504 48.0002V48.0002C55.21 50.3826 60.1659 48.9589 62.0425 44.9729L65.5271 37.5714C67.3418 33.7169 71.219 31.2568 75.4793 31.2568H80.6152C82.5745 31.2568 84.3995 30.2606 85.4592 28.6125V28.6125C88.8166 23.3908 96.9219 26.4455 95.9979 32.5843L92.0765 58.6349C91.2663 64.0171 86.6418 67.9976 81.199 67.9976H48.6845C41.3848 67.9976 36.5627 60.4073 39.6644 53.7993L40.962 51.035Z" fill="#A7B0FF" fill-opacity="0.9"/>
<path d="M91.8217 50.7048C89.3983 45.5417 83.3597 43.176 78.0741 45.3189L75.1777 46.4931C71.3806 48.0324 67.0427 47.3338 63.9208 44.6803L61.404 42.541C59.8917 41.2556 57.8599 40.7625 55.9266 41.2117V41.2117C51.9971 42.1248 48.241 39.1414 48.241 35.1072V31.0344C48.241 29.8739 47.9073 28.7378 47.2796 27.7616V27.7616C43.7516 22.2745 35.2344 25.4845 36.2054 31.9352L39.9235 56.6349C40.7337 62.0171 45.3581 65.9976 50.8009 65.9976H82.1063C89.9688 65.9976 95.1626 57.8222 91.8217 50.7048V50.7048Z" fill="#FF9B95" fill-opacity="0.9"/>
</g>
</svg>
