<svg width="666" height="931" viewBox="0 0 666 931" fill="none" xmlns="http://www.w3.org/2000/svg">
<path d="M330.763 929.228L592.159 578.298L618.431 533.001L57.097 545.602L75.2702 580.684L330.763 929.228Z" fill="#37323E"/>
<ellipse cx="355.465" cy="333" rx="355.465" ry="333" transform="matrix(0 -1 -1 0 666 710.931)" fill="#37323E"/>
<ellipse cx="294.027" cy="284.803" rx="294.027" ry="284.803" transform="matrix(0 -1 -1 0 613.421 640.715)" fill="white"/>
<ellipse cx="241.365" cy="232.224" rx="241.365" ry="232.224" transform="matrix(0 -1 -1 0 560.844 588.053)" fill="white"/>
<mask id="mask0_1_2105" style="mask-type:alpha" maskUnits="userSpaceOnUse" x="36" y="72" width="482" height="467">
<ellipse cx="240.576" cy="232.986" rx="240.576" ry="232.986" transform="matrix(-0.999538 0.0303767 0.0300441 0.999548 510.862 65.6929)" fill="white"/>
</mask>
<g mask="url(#mask0_1_2105)">
<path d="M496.477 274.397C490.007 261.567 476.692 253.646 462.327 254.083L460.957 254.124C446.035 254.578 432.305 246.019 426.144 232.423L395.608 165.041C380.837 132.445 332.996 137.74 325.687 172.778L322.667 187.254C322.261 189.199 321.699 191.109 320.987 192.964L307.773 227.375C298.783 250.787 269.603 258.671 250.057 242.971L235.96 231.648C217.476 216.8 189.987 222.934 179.556 244.233L157.018 290.257C153.627 297.181 152.483 304.99 153.746 312.593L167.948 398.141C170.698 414.71 184.264 427.343 200.985 428.909L526.272 459.375C555.24 462.088 575.872 431.844 562.772 405.867L496.477 274.397Z" fill="#FFFB88"/>
</g>
<mask id="mask1_1_2105" style="mask-type:alpha" maskUnits="userSpaceOnUse" x="88" y="113" width="482" height="467">
<ellipse cx="240.589" cy="232.973" rx="240.589" ry="232.973" transform="matrix(-0.998136 0.0602015 0.0598502 0.998257 555.092 99.4495)" fill="white"/>
</mask>
<g mask="url(#mask1_1_2105)">
<path d="M557.884 434.136C539.498 400.231 495.407 390.374 464.319 413.219V413.219C433.255 436.047 389.2 426.225 370.789 392.367L329.871 317.118C315.972 291.557 288.542 276.349 259.497 278.101L201.368 281.606C184.221 282.641 167.731 274.864 157.623 260.976V260.976C125.646 217.04 56.3574 247.915 67.6106 301.084L119.477 546.144C127.165 582.469 160.274 607.691 197.335 605.456L518.834 586.065C573.615 582.761 606.431 523.66 580.271 475.419L557.884 434.136Z" fill="#A7B0FF" fill-opacity="0.9"/>
<path d="M122.753 435.255C136.093 401.562 173.5 384.239 207.809 395.864L272.859 417.906C296.938 426.065 323.562 420.104 341.873 402.453L374.985 370.535C387.516 358.457 405.039 353.056 422.189 355.985V355.985C456.937 361.921 488.162 333.93 486.052 298.736L483.878 262.475C483.272 252.376 485.572 242.315 490.504 233.48V233.48C518.357 183.589 594.544 207.055 589.478 263.965L567.802 507.464C564.816 541 537.746 567.311 504.144 569.338L165.652 589.753C115.983 592.749 80.0422 543.127 98.364 496.853L122.753 435.255Z" fill="#FF9B95" fill-opacity="0.9"/>
</g>
</svg>
