<svg width="215" height="82" viewBox="0 0 215 82" fill="none" xmlns="http://www.w3.org/2000/svg">
<path fill-rule="evenodd" clip-rule="evenodd" d="M77.611 71.4889C71.1443 76.3665 63.0957 79.2585 54.3716 79.2585C33.0372 79.2585 15.7423 61.9636 15.7423 40.6293C15.7423 19.2949 33.0372 2.00001 54.3716 2.00001C63.0957 2.00001 71.1443 4.89201 77.611 9.76962V9.59243L78.7818 10.6884C80.1442 11.8005 81.4293 13.0037 82.6277 14.2887L110.766 40.6302L83.4701 66.0367C81.7136 68.0467 79.7522 69.8731 77.6185 71.4833L77.611 71.4902V71.4889Z" fill="#FFD0A5"/>
<path fill-rule="evenodd" clip-rule="evenodd" d="M137.389 10.5111C143.855 5.63346 151.904 2.74146 160.628 2.74146C181.962 2.74145 199.257 20.0364 199.257 41.3707C199.257 62.7051 181.962 80 160.628 80C151.904 80 143.855 77.108 137.389 72.2304V72.4076L136.218 71.3116C134.855 70.1995 133.57 68.9963 132.372 67.7113L104.234 41.3698L131.53 15.9633C133.286 13.9532 135.247 12.1269 137.381 10.5167L137.389 10.5098V10.5111Z" fill="#FFD0A5"/>
<ellipse cx="54.4996" cy="40.5" rx="33.5" ry="32.5" fill="#242424"/>
<ellipse cx="160.5" cy="41.5" rx="33.5" ry="32.5" fill="#242424"/>
<ellipse cx="54.4996" cy="40.5" rx="27.5" ry="26.5" fill="#FF9FCD"/>
<ellipse cx="160.5" cy="41.5" rx="27.5" ry="26.5" fill="#FF9FCD"/>
</svg>
